<svg width="137" height="197" xmlns="http://www.w3.org/2000/svg" xmlns:xlink="http://www.w3.org/1999/xlink" xml:space="preserve" overflow="hidden"><defs><clipPath id="clip0"><rect x="0" y="0" width="137" height="197"/></clipPath></defs><g clip-path="url(#clip0)"><path d="M32.23 189.901C27.89 189.889 24.21 189.614 20.13 188.68 19.38 189.769 17.59 189.74 16.92 188.588 16.5 188.116 15.86 186.863 15.98 186.93 11.24 171.028 13.88 154.284 16.7 137.605 18.63 124.542 24.92 112.055 28.21 99.632 30.33 94.158 23.8 88.681 28.41 84.164 27.83 81.045 30.85 78.417 33.78 78.231 36.77 69.622 46.7 71.134 53.85 74.684 57.9301 76.709 59.3 80.67 62.48 80.591 62.91 79.883 63.51 78.474 64.2 76.842L64.2 76.841C65.13 74.767 66.62 70.798 68.05 69.612 73.12 67.081 81.2 68.983 86.12 69.414 90.64 69.493 91.46 73.481 92.8101 77.981 96.9 76.637 107.43 75.288 112.85 77.881 115.31 79.06 116.37 78.724 115.63 81.903 115.08 83.291 113.31 86.018 112.46 86.849 112.23 87.322 112.81 87.688 112.63 88.158 110.35 94.336 110.33 99.086 111.03 105.732 112.72 117.635 116.34 131.996 118.52 143.915 119.44 153.965 127.76 179.121 121.48 186.333 119.46 188.03 116.63 186.765 114.19 187.251 105.89 188.342 97.83 188.704 88.85 188.701 70.1899 188.444 32.4399 189.901 32.23 189.901Z" fill="#FFFFFF"/><path d="M89.0601 175.509C89.08 174.598 87.86 150.784 88.34 139.741 88.73 122.318 92.33 106.74 92.89 87.847L93.34 84.702C93.21 83.112 92.79 80.942 92.73 79.36 92.66 77.432 93.1 77.495 93.13 77.396 100.34 75.587 105.4 75.319 111.92 76.81 111.97 76.822 112.22 76.923 112.27 76.947 112.88 77.268 113.04 77.931 115.27 79.418 115.59 80.186 115.17 81.12 114.67 81.855 114.18 82.595 113.87 84.574 113.87 84.686 113.85 85.345 113.64 85.981 113.26 86.521 112.83 87.135 112.57 87.792 112.57 87.792 112.57 87.792 111.7 90.641 111.08 91.981 105.94 103.506 102.8 115.779 99.8101 128.369 95.6801 145.782 92.5 163.589 92.75 181.076 92.76 181.58 92.02 181.982 91.85 181.504 91.36 180.046 89.24 175.929 89.0601 175.509ZM66.58 136.511 64.62 136.614C64.0601 130.254 63.38 121.428 61.98 115.164 61.63 113.58 61.36 112.384 60.96 111.086 58.73 102.718 55.25 94.905 50.5601 87.615 45.0601 86.017 40.37 87.978 34.6899 89.657 32.16 90.279 30.1 90.883 27.62 90.521 25.13 89.761 26.21 86.427 26.76 84.359 27.51 81.506 31.05 79.011 32.88 79.139 33.48 79.101 33.0699 76.238 33.86 75.107 36.6899 73.01 41.48 72.173 45 72.083 48.28 72.072 51.3199 72.943 54.28 74.357 55.51 74.816 57.6 76.474 57.6 77.613 61.89 81.392 71.59 81.974 77.6899 82.493 78.28 82.543 78.62 83.164 78.35 83.694 71.03 98.482 68.65 120.065 66.58 136.511Z" fill="#FFFFFF"/><path d="M91.87 98.632C91.87 98.632 90.4 112.917 89.8199 119.166 88.6801 131.625 87.98 144.136 88.0699 156.651 88.1 159.887 88.4 167.038 88.4 167.038 88.5601 170.56 90.51 179.828 90.51 179.828 90.62 181.417 90.95 184.718 91.64 186.159 92.3101 187.563 95.6899 189.587 96.11 189.672 87.39 189.851 75.9399 189.569 67.2 189.358 68.11 189.215 68.62 188.497 68.75 187.582 68.98 185.732 68.54 183.859 67.52 182.302 67.41 182.145 66.92 175.215 66.8 173.537 66.55 170.175 66.36 166.807 66.29 163.437 66.14 156.697 66.25 149.958 66.63 143.22 67.39 129.774 69.1801 114.816 72.09 101.664 72.3 100.706 72.41 100.174 72.63 99.217 74.9 100.394 79.04 100.39 81.52 100.407 84.62 100.427 91.87 98.632 91.87 98.632Z" fill="#FFFFFF"/><path d="M132.31 181.988C132.24 181.758 132.15 181.538 132.02 181.336 133.72 169.232 127.8 157.574 125.76 145.76 122.83 128.353 124.23 108.535 111.58 94.608 112.29 92.362 113.06 90.252 113.51 87.862 115.74 87.019 117.48 84.493 116.32 82.151 121.26 76.146 106.05 75.523 103.21 78.166 103.06 78.299 103.24 78.285 103.32 78.276 107.04 77.844 111.08 77.484 114.55 79.496L114.55 79.496C114.86 79.629 115.1 79.773 114.8 80.035 114.18 80.487 113.19 80.173 112.6 80.744 111.63 81.511 112.07 83.248 113.28 83.475 113.28 83.476 113.4 83.499 113.43 83.62 113.47 83.759 113.38 83.905 113.37 83.912 112.86 84.784 111.46 84.828 110.67 85.409 105.71 83.586 100.85 82.306 96.05 80.215L96.05 80.215C95.11 79.832 94.13 79.436 93.16 79.059 92.89 78.065 92.64 77.226 92.52 78.917 92.51 78.946 92.51 78.978 92.51 79.008 92.34 83.136 92.1 87.225 91.76 91.343 91.4301 93.235 91.12 95.197 90.85 97.174 90.51 97.067 90.13 97.12 89.8199 97.291 85.11 99.818 79.5 100.151 74.36 98.955 75.38 94.813 76.17 91.573 77.7 87.836 78.39 86.195 79.24 84.654 80.03 83.076 80.22 82.664 80.2 82.183 79.96 81.793 79.25 80.829 77.85 81.567 76.8101 81.391 71.48 81.253 65.54 80.503 60.5601 79.763 60.35 79.714 60.24 80.049 60.47 80.11 65.85 82.106 71.3 83.004 76.92 83.426 73.99 88.355 72.79 93.762 71.37 99.539 68.7 110.816 66.8101 122.429 65.75 133.94 65.75 133.983 65.6899 133.984 65.6899 133.941 65.12 127.738 64.08 121.323 62.58 115.28 62.1899 113.675 61.88 112.347 61.4399 110.966 59.26 102.775 56.17 94.921 51.65 87.729 51.58 87.531 51.47 87.351 51.3199 87.204 50.99 86.826 50.84 86.151 50.37 85.987 49.9 86.011 50.17 86.472 50.28 86.733 43.6899 85.082 37.4 88.65 31.05 89.869 29.86 90.033 28.03 90.593 27.11 89.673 26.8199 88.51 28.35 87.702 29.27 87.333 31.92 86.954 31.1 83.156 28.62 84.191 28.5699 84.085 28.52 83.967 28.46 83.984 28.42 83.236 29.15 82.55 29.77 82.064 31.05 81.068 32.74 80.377 34.37 80.735 34.91 80.913 35.54 81.069 35.99 80.635 36.72 80.006 36.6801 78.696 35.85 78.169 35.46 77.908 35.04 77.611 34.72 77.249 33.58 75.916 35.92 75.415 36.89 75.013 42.5699 72.688 49.14 73.142 54.62 75.825 55.65 76.23 57.05 76.784 57.16 77.766 57.8101 78.73 57.85 76.61 57.6 76.259 54.4399 71.053 45.02 70.032 39.52 71.102 35.49 72.069 30.54 73.305 31.66 77.687 28.25 78.259 23.75 81.898 25.6899 85.655 22.85 87.632 23.11 92.249 26.7 93.174 16.65 103.539 12.5601 118.78 12 133.3 12.08 142.646 12.0699 152.067 8.87 160.978L8.87 160.979C6.83997 168.764 3.06995 177.425 6.68994 185.26 6.82996 185.681 7.31995 185.908 7.73999 185.801 8.46997 191.263 14.8199 191.692 19.2 191.304 23.26 191.171 27.85 190.982 31.86 190.809 32.21 190.794 34.6 190.69 34.83 190.68 44.92 190.234 58.1 189.748 68.22 189.389 71.46 188.982 69.96 183.475 68.4301 181.885 66.58 154.398 67.55 127.185 74.02 100.394 79.73 102.961 85.13 102.322 90.46 100.017 88.1899 117.775 86.41 140.082 86.64 156.656 86.75 162.733 86.83 166.926 87.36 172.409 87.55 174.191 87.89 175.955 88.37 177.682 88.4399 178.001 88.6801 178.256 88.99 178.351 89.14 183.606 89.8199 190.058 96.63 189.851 103.11 189.548 109.72 188.932 116.12 188.448 119.17 188.205 122.33 187.95 125.42 187.716 127.21 187.491 129.17 187.718 130.81 186.847 131.85 186.151 132.66 183.458 132.31 181.988ZM110.28 91.755C110.13 92.033 109.99 92.314 109.86 92.592 109.83 92.647 109.58 93.19 109.55 93.258 108.72 95.071 108 96.976 107.31 98.819L107.31 98.821C97.34 124.619 92.26 152.368 92.12 179.98 92.12 180.134 92.09 180.374 92.05 180.237 91.84 179.551 91.63 178.963 91.46 178.282L91.46 178.281C91.22 177.275 90.84 176.304 90.4399 175.358 89.26 151.422 90.3 126.606 92.84 102.967 93.36 97.523 93.8 92.798 93.99 87.507 94.05 85.926 93.5601 81.27 93.34 79.857 93.3199 79.735 93.45 79.654 93.5601 79.72 96.4301 81.527 99.4 83.065 102.34 84.726 104.6 86.026 106.89 87.22 109.35 88.215 110.14 88.57 111.06 88.947 111.9 88.577 111.91 88.572 111.9 88.624 111.9 88.624L111.9 88.625C111.41 89.561 110.98 90.451 110.52 91.468 110.41 91.545 110.33 91.643 110.28 91.755Z"/><path d="M116.83 155.788C116.49 155.775 116.17 156.056 116.19 156.405 116.2 164.681 116.89 175.104 118.03 184.289 118.07 185.032 119.42 185.138 119.31 184.289 118.23 175.658 117.47 164.879 117.47 156.406 117.48 156.054 117.18 155.765 116.83 155.788L116.83 155.788Z" fill="#FFFFFF"/><path d="M57.2 166.443C51.77 169.091 46.91 172.633 41.8101 176.46 41.5699 176.644 41.48 176.962 41.58 177.245 41.67 177.617 42.15 177.835 42.45 177.563 45.03 175.584 47.4301 173.858 49.8 172.286 52.45 170.522 54.98 168.998 57.54 167.627 58.13 167.357 57.8101 166.429 57.2 166.443Z" fill="#FFFFFF"/><path d="M103.23 165.751C100.59 165.896 106.93 171.07 107.66 170.117 107.99 169.855 108.01 169.278 107.59 169.1 106.1 168.367 104.8 167.315 103.77 166.018 103.64 165.849 103.44 165.75 103.23 165.751L103.23 165.751Z" fill="#FFFFFF"/><path d="M39.13 127.811C37.64 128.238 38.71 132.664 38.9399 133.761 39.23 134.518 40.24 134.186 40.89 134.278 45.45 134.135 50.2 132.881 54.45 131.372 54.91 129.37 51.8101 131.102 50.89 131.163 47.37 132.135 43.73 133.141 40.0699 132.981 39.76 131.635 39.48 130.063 39.8 128.609 39.92 128.195 39.54 127.801 39.13 127.811Z" fill="#FFFFFF"/><path d="M104.62 128.877C102.25 130.214 108.09 131.421 109.08 130.916 111.47 130.434 112.35 126.954 111.79 125.061 110.16 124.145 110.84 126.884 110.47 127.706 109.89 130.76 106.55 129.665 104.62 128.877L104.62 128.877Z" fill="#FFFFFF"/><path d="M32.89 190.764C32.41 175.476 31.1801 160.218 31.14 144.814 30 143.599 28.3 143.062 27.2 141.9 27.01 139.645 30.37 142.736 31.15 143.151 31.37 141.864 30.47 137.544 32.3101 138.678 32.7 142.547 32.25 146.694 32.51 151.287 32.8101 164.559 33.73 177.468 34.17 190.71 34.17 190.71 34.14 191.303 33.53 191.335 32.95 191.366 32.89 190.764 32.89 190.764Z" fill="#FFFFFF"/><path d="M62.966 49.055C62.966 49.055 50.795 49.544 52.466 57.605 54.337 66.629 62.795 65.264 62.795 65.264L65.841 68.836C65.841 68.836 76.167 83.155 92.921 82.215 92.921 82.215 101.556 81.524 106.536 72.644 109.744 66.924 110.171 60.515 110.016 56.864 109.614 47.423 106.558 38.507 106.558 38.507 106.558 38.507 97.956 22.244 78.036 24.644 62.2 26.552 63.815 43.784 62.966 49.055Z" fill="#FFFFFF"/><path d="M56.505 53.473C56.024 53.687 56.156 54.5 56.652 54.601 57.104 54.693 57.507 54.655 57.927 54.883 58.368 55.122 58.754 55.504 59.07 55.89 59.357 56.24 59.598 56.643 59.762 57.065 59.947 57.539 59.991 57.882 60.388 58.234 60.729 58.536 61.194 58.47 61.448 58.097 62.208 56.981 60.898 55.334 60.096 54.569 59.229 53.739 57.701 52.941 56.505 53.473Z"/><path d="M118.687 39.457C118.238 38.695 117.703 37.992 117.26 37.223 115.79 34.603 114.996 31.661 113.378 29.115 111.799 26.632 109.942 24.254 107.627 22.4 109.172 22.618 110.669 23.173 112.243 23.176 112.804 23.177 112.906 22.466 112.548 22.206 108.04 13.077 96.81 7.796 86.862 9.399 87.206 8.965 87.492 8.473 87.741 8.042 88.266 7.111 88.886 6.134 88.927 5.044 89.143 4.841 89.009 4.452 88.691 4.442 87.847 4.417 86.908 4.765 86.1 4.988 82.875 5.88 79.746 7.076 76.562 8.097 73.003 9.249 69.613 10.546 66.692 12.896 66.966 12.341 66.912 11.644 67.013 11.041 67.135 10.318 67.321 9.611 67.547 8.915 67.753 8.241 66.69 8.071 66.56 8.741 64.659 10.355 63.494 12.626 62.51 14.878 62.442 15.039 62.376 15.311 62.245 15.366 62.148 15.407 61.719 15.304 61.641 15.295 61.184 15.242 60.732 15.213 60.272 15.198 59.993 15.189 59.836 15.412 59.827 15.641 50.451 19.926 47.741 36.306 47.258 45.604 47.196 46.787 46.958 48.43 47.481 49.538 47.475 49.58 47.468 49.622 47.462 49.665 47.417 50.006 47.929 50.097 48.081 49.833 48.817 48.558 49.41 47.206 50.224 45.975 49.607 49.447 50.874 52.867 51.533 56.26 51.286 58.37 52.072 60.459 53.533 61.982 54.399 64.361 55.461 66.683 56.578 68.95 57.268 70.35 57.992 71.739 58.809 73.07 59.429 74.081 60.125 75.031 61.117 75.706 61.365 75.875 61.656 75.656 61.684 75.403 62.067 75.189 62.124 74.697 62.203 74.224 62.272 73.815 62.362 73.375 62.404 72.937 62.705 73.714 63.054 74.467 63.463 75.195 63.865 75.912 64.378 77.071 65.163 77.422 65.311 77.488 65.47 77.438 65.545 77.323 65.758 77.318 65.982 77.179 66.013 76.91 66.193 75.25 66.589 73.632 67.152 72.061 67.848 72.837 68.574 73.586 69.333 74.3 70.42 75.323 71.57 76.591 73.073 76.861 73.543 76.946 73.912 76.504 73.686 76.063 73.022 74.768 71.693 73.981 70.638 72.994 67.812 70.366 65.461 67.28 63.416 64.018 63.395 63.973 63.368 63.931 63.337 63.893 63.046 63.433 62.726 62.95 62.29 62.688 61.949 62.483 61.556 62.751 61.536 63.121 61.527 63.291 61.547 63.464 61.587 63.636 58.895 63.719 56.249 62.228 54.548 60.199 52.7 57.914 53.035 54.063 55.741 52.567 56.455 52.172 57.252 51.934 58.065 51.864 58.522 51.825 58.985 51.824 59.441 51.879 59.961 51.942 60.513 51.889 61.023 51.976 61.853 54.343 62.935 56.925 65.219 58.213 65.601 58.422 66.222 58.342 66.42 57.898 66.919 56.783 66.897 55.552 66.641 54.37 67.133 54.924 67.688 55.435 68.338 55.885 68.728 56.155 69.405 55.802 69.345 55.307 68.982 52.318 69.133 49.245 70.62 46.561 72.383 43.545 73.857 41.883 73.807 38.15 74.66 39.2 75.57 40.207 76.469 41.216 76.95 41.756 77.72 41.172 77.597 40.559 76.981 37.603 76.037 34.708 76.102 31.651 79.054 34.815 78.905 39.783 79.74 43.825 79.836 44.362 80.744 44.511 80.966 43.985 82.338 40.738 83.085 37.074 83.13 33.492 83.901 34.992 84.617 36.523 85.209 38.092 85.479 38.808 86.557 38.732 86.581 37.906 86.631 36.149 86.672 34.388 86.671 32.627 91.232 38.935 99.244 41.171 106.537 42.472 106.789 44.37 107.36 46.213 107.809 48.07 108.711 51.763 109.139 55.44 108.957 59.246 108.642 66.692 106.152 74.796 99.464 78.88 96.055 81.148 92.488 81.543 88.49 81.408 87.103 81.368 85.743 81.155 84.36 81.082 83.759 81.05 83.731 81.878 84.227 82.066 86.573 82.957 89.328 83.071 91.816 82.985 98.209 82.859 104.104 78.768 107.194 73.286 109.14 69.768 110.137 65.792 110.59 61.821 111.027 57.991 110.942 54.047 110.2 50.258 109.708 47.725 108.914 45.263 108.436 42.727 110.472 42.942 112.524 42.953 114.525 42.582 114.993 42.495 114.912 41.849 114.525 41.724 114.044 41.09 113.187 40.672 112.581 40.196 111.465 39.298 110.417 38.384 109.59 37.18 111.704 38.248 113.718 39.191 115.998 39.764 116.721 39.953 117.647 40.231 118.385 39.964 118.633 39.953 118.841 39.718 118.687 39.457Z"/><path d="M93.11 76.036C91.59 76.009 89.95 75.744 88.75 74.737 88.67 74.659 88.64 74.539 88.67 74.429 88.7 74.315 88.78 74.224 88.9 74.196 89.52 74.079 90.15 74.003 90.78 73.968 91.21 73.935 91.65 73.901 92.08 73.841 92.42 73.786 92.76 73.713 93.09 73.621 93.5699 73.473 94.08 73.386 94.58 73.362 94.91 73.356 95.23 73.425 95.52 73.563 95.79 73.713 95.98 73.975 96.05 74.279 96.26 74.951 95.66 75.541 95.09 75.791 94.74 75.916 94.38 75.985 94.01 75.998 93.7 76.023 93.4 76.036 93.11 76.036Z"/><path d="M94.38 64.136C93.12 64.181 88.6 62.633 90.42 60.945 90.58 60.804 90.79 60.725 91 60.72 91.16 60.721 91.3101 60.769 91.45 60.857 92.5601 61.751 94.63 63.311 95.96 61.858 97.27 60.277 95.23 58.308 94.3199 57.857 94.2 57.75 94.16 57.575 94.22 57.424 94.3 57.188 94.52 57.031 94.77 57.036 96.64 57.179 98.14 58.93 97.91 60.811 97.8 62.619 96.23 64.213 94.38 64.136L94.38 64.136Z"/><path d="M100.12 56.499C98.67 56.369 98.24 54.539 98.23 53.325 98.28 49.131 101.96 49.14 102.01 53.325 102 54.538 101.56 56.371 100.12 56.499L100.12 56.499Z"/><path d="M83.2 56.479C82.66 56.479 82.16 56.014 81.99 55.564 81.74 54.795 81.6801 53.883 82.09 53.159L82.13 53.106C82.12 53.07 82.12 53.01 82.12 52.975 81.14 52.916 80.01 52.803 78.91 52.655 78.03 52.541 76.89 52.51 76.21 51.977 76.2 51.969 76.2 51.957 76.2 51.945 76.2 51.931 76.21 51.918 76.22 51.911 77.01 51.574 77.92 51.735 78.76 51.647 80.3 51.603 81.8 51.535 83.21 51.45 83.5699 51.298 83.99 51.247 84.37 51.37 85.0601 51.319 85.8 51.244 86.5 51.186 87.13 51.17 87.74 51.009 88.37 50.963 89.16 50.955 89.96 51.764 89.29 52.545 88.8199 53.099 88.3 52.996 87.7 53.017 86.99 53.045 86.28 53.067 85.58 53.067 85.62 54.38 84.78 55.532 83.76 56.283 83.6 56.409 83.4 56.478 83.2 56.479L83.2 56.479Z"/><path d="M93.62 46.67C92.99 46.54 92.73 45.92 92.63 45.436 92.52 44.878 92.53 44.304 92.64 43.748 92.9301 42.466 93.8 41.323 94.98 40.734 97.33 39.458 101.95 40.872 101.65 43.986 101.59 44.281 101.42 44.541 101.18 44.713 100.94 44.87 100.67 44.951 100.38 44.946 99.73 44.96 99.04 44.511 99 43.823 98.34 42.872 96.6801 42.584 95.65 43.241 95.12 43.574 94.67 44.141 94.33 44.926 94.24 45.144 94.16 45.367 94.1 45.596 94 45.968 93.89 46.353 93.66 46.654 93.65 46.665 93.63 46.671 93.62 46.67L93.62 46.67Z"/></g></svg>